HIERARCHY
ROOT pelvis
{
  OFFSET 0 100 0
  CHANNELS 6 Xposition Yposition Zposition Zrotation Xrotation Yrotation
  JOINT pelvis_right_femur
  {
    OFFSET -10.78128 -3.44521 -0.5502486
    CHANNELS 3 Zrotation Xrotation Yrotation
    JOINT right_femur_tibia
    {
      OFFSET -0.8047443 -44.0398 -0.1307829
      CHANNELS 3 Zrotation Xrotation Yrotation
      JOINT right_tibia_foot
      {
        OFFSET 3.006224 -47.83518 -5
        CHANNELS 3 Zrotation Xrotation Yrotation
        End Site
        {
          OFFSET 0 -5 15
        }
      }
    }
  }
  JOINT pelvis_left_femur
  {
    OFFSET 10.78128 -3.44521 -0.5502486
    CHANNELS 3 Zrotation Xrotation Yrotation
    JOINT left_femur_tibia
    {
      OFFSET 0.8047443 -44.0398 -0.1307829
      CHANNELS 3 Zrotation Xrotation Yrotation
      JOINT left_tibia_foot
      {
        OFFSET -4.370144 -48.10324 -4.275266
        CHANNELS 3 Zrotation Xrotation Yrotation
        End Site
        {
          OFFSET 0 -5 15
        }
      }
    }
  }
  JOINT pelvis_spine1
  {
    OFFSET 0 6.468898 -3.129235
    CHANNELS 3 Zrotation Xrotation Yrotation
    JOINT spine1
    {
      OFFSET 0 23.15396 4.99043
      CHANNELS 3 Zrotation Xrotation Yrotation
      JOINT spine2
      {
        OFFSET 0 20.79997 -5.064912
        CHANNELS 3 Zrotation Xrotation Yrotation
        JOINT neck
        {
          OFFSET 0 14.38658 9.616178
          CHANNELS 3 Zrotation Xrotation Yrotation
          End Site
          {
            OFFSET 0 20 0
          }
        }
      }
      JOINT right_manubrium
      {
        OFFSET -5.722621 16.35077 3.967754
        CHANNELS 3 Zrotation Xrotation Yrotation
        JOINT right_clavicle
        {
          OFFSET -13.16364 1.694482 -4.693211
          CHANNELS 3 Zrotation Xrotation Yrotation
          JOINT right_humerus
          {
            OFFSET -28.5034 -0.3100689 -2.792744
            CHANNELS 3 Zrotation Xrotation Yrotation
            JOINT right_radius
            {
              OFFSET -25.15693 0.02248979 -1.271978
              CHANNELS 3 Zrotation Xrotation Yrotation
              End Site
              {
                OFFSET -15 0 0
              }
            }
          }
        }
      }
      JOINT left_manubrium
      {
        OFFSET 5.722621 16.35077 3.967754
        CHANNELS 3 Zrotation Xrotation Yrotation
        JOINT left_clavicle
        {
          OFFSET 13.16364 1.694482 -4.693211
          CHANNELS 3 Zrotation Xrotation Yrotation
          JOINT left_humerus
          {
            OFFSET 29.39168 -1.063119 -2.237045
            CHANNELS 3 Zrotation Xrotation Yrotation
            JOINT left_radius
            {
              OFFSET 24.59957 -0.9528479 0.9047498
              CHANNELS 3 Zrotation Xrotation Yrotation
              End Site
              {
                OFFSET 15 -0 -0
              }
            }
          }
        }
      }
    }
  }
}
MOTION
Frames: 17
Frame Time: 0.0416666666667
0 103.5113 0 0.7934594 -0.5992658 -0.2019049 4.30266 -17.2361 11.05557 -0 41.27897 -0 -5.688892 -16.47376 -2.508134 -7.041538 9.542824 -23.59098 -0 6.346016 -0 13.39026 -12.91466 30.11623 -3.659683 -3.758435 4.992149 2.428706 10.77938 -7.529658 1.187866 21.33534 7.271274 3.828364 -24.22097 9.553904 8.052173 -20.15877 12.28502 84.36121 40.01924 -17.28419 -0 0 17.27981 -6.562199 8.796474 3.4603 6.073223 -19.30737 -1.782288 -92.61807 20.88533 21.23937 0 0 -14.0099 15.03176 14.35578 -4.032141
0.364449 104.1347 1.499477 0.7832636 -0.8051206 -0.380149 4.144154 -17.23001 10.6336 -0 41.50226 -0 -5.915811 -15.83485 -2.438285 -6.976741 9.5291 -23.25448 -0 6.391047 -0 13.24803 -12.85749 29.76269 -3.61435 -3.675392 4.873328 2.353278 10.84939 -7.491111 1.160186 21.41433 7.277057 3.839459 -24.07283 9.47119 7.924144 -20.08874 12.29849 84.52041 39.69077 -17.27568 -0 0 17.00368 -7.050509 8.821155 3.694808 6.078739 -19.46509 -1.943229 -92.28375 20.56848 20.84177 0 0 -14.08058 15.29506 14.32243 -4.350049
0.7618954 104.3419 3.346456 0.6665388 0.5117743 -0.4996901 4.639609 -22.09398 9.267037 -0 33.52655 -0 -4.999293 -14.75643 -1.861922 -7.134433 10.12057 -22.30273 -0 5.173814 -0 12.78291 -15.68037 28.32046 -3.649192 -3.049454 5.132724 2.639838 10.26315 -7.466636 1.401372 21.19659 7.139886 3.633163 -24.80925 9.776767 7.136284 -19.84443 11.93731 84.9596 38.67907 -18.01798 -0 0 16.33271 -6.901388 8.665905 3.83542 6.754191 -19.96586 -1.752001 -91.78748 21.13798 19.92071 0 0 -16.81398 15.02602 14.05481 -3.716067
1.165087 104.2481 5.530317 0.5848117 1.615511 -0.5208149 5.033569 -25.76768 8.190627 -0 27.53139 -0 -4.550541 -13.25669 -1.41397 -7.265116 10.75478 -21.44267 -0 4.699746 -0 12.28659 -17.7998 27.11482 -3.684079 -2.654763 5.256898 2.864476 9.873831 -7.511837 1.531008 21.00495 7.065022 3.550409 -25.38618 9.916215 6.592009 -19.59012 11.66841 85.45734 38.13106 -18.82543 -0 0 15.55657 -6.808649 8.50979 3.950542 7.240339 -20.45848 -1.604599 -91.35833 21.60682 19.21111 0 0 -19.07689 14.70006 13.80788 -3.086233
1.535426 103.8859 8.240885 0.4276234 2.493775 -0.3929343 5.289074 -29.43667 6.510685 -0 21.59975 -0 -4.667251 -10.439 -0.9702981 -7.252217 11.76249 -19.97172 -0 4.966353 -0 11.1468 -19.88529 25.18063 -3.582439 -2.236084 5.100129 3.011232 9.570357 -7.590273 1.591912 20.94064 6.991377 3.492808 -25.75768 9.86263 5.810492 -19.14578 11.3828 86.41301 37.0378 -19.96829 -0 0 14.0976 -7.344388 8.307495 4.34895 7.664956 -21.2636 -1.692041 -90.53009 22.02045 17.99789 0 0 -21.68695 14.20347 13.65924 -2.262079
1.842905 103.3619 11.55278 0.1815337 3.172138 -0.1128197 5.591408 -32.39614 4.931097 -0 16.69499 -0 -5.17742 -7.276519 -0.6299308 -7.118963 12.97056 -18.34611 -0 6.19812 -0 9.621157 -21.41512 23.05266 -3.327599 -1.950984 4.768837 3.105699 9.378459 -7.726664 1.583024 20.92088 6.938421 3.463739 -25.95831 9.693083 5.050408 -18.63111 11.12375 87.52272 35.90845 -21.23213 -0 0 12.44968 -8.020255 8.106847 4.744728 7.928964 -22.09925 -1.877882 -89.69679 22.39921 16.83026 0 0 -24.03124 13.52888 13.54964 -1.290654
2.059152 102.7977 15.54848 -0.2027141 3.492041 0.3032143 5.99235 -34.34023 3.495274 -0 13.15485 -0 -6.101481 -4.001827 -0.4123198 -6.793993 14.29686 -16.52285 -0 8.749368 -0 7.606241 -22.09262 20.64325 -2.823321 -1.792353 4.235131 3.113701 9.316278 -7.898723 1.505653 20.98181 6.897765 3.430489 -25.89135 9.41152 4.270456 -18.04214 10.89801 88.75949 34.5699 -22.5036 -0 0 10.67425 -8.933838 7.956332 5.152473 7.97261 -22.91355 -2.225767 -88.86608 22.65015 15.71595 0 0 -25.85976 12.71503 13.49521 -0.2482982
2.174999 102.3562 20.24647 -0.733902 3.410774 0.7974846 6.591763 -34.88343 2.496705 -0 11.41489 -0 -7.284387 -1.269208 -0.3485908 -6.257273 15.4319 -14.7062 -0 12.85781 -0 5.24502 -21.59614 18.15379 -2.036601 -1.763129 3.589616 3.031649 9.374721 -8.07168 1.374493 21.10171 6.874706 3.376332 -25.56353 9.084189 3.565461 -17.44511 10.72724 89.91889 33.18279 -23.55649 -0 0 9.09539 -9.92257 7.92719 5.486222 7.740222 -23.51951 -2.698269 -88.23895 22.74878 14.94378 0 0 -26.74343 11.81956 13.46838 0.7844684
2.203345 102.2109 25.59482 -1.36958 2.874945 1.269893 7.33873 -33.75627 1.99831 -0 11.56146 -0 -8.570237 0.3645646 -0.4722057 -5.510137 15.97306 -13.04407 -0 18.74581 -0 2.730357 -19.75685 15.75723 -0.9941295 -1.813559 2.955486 2.855103 9.530083 -8.189367 1.216529 21.28827 6.856885 3.287068 -24.98216 8.75857 2.986067 -16.89109 10.62984 90.83668 31.83956 -24.18599 -0 0 7.94814 -10.9136 8.08482 5.72855 7.218362 -23.78596 -3.266293 -87.93185 22.6799 14.66827 0 0 -26.40525 10.93128 13.47753 1.709164
2.178292 102.5177 31.44991 -1.987956 1.920203 1.59141 8.02858 -30.91528 1.896085 -0 13.19901 -0 -9.781092 0.496633 -0.7995354 -4.637505 15.45988 -11.68985 -0 26.43404 -0 0.3665874 -16.71097 13.68371 0.149044 -1.859344 2.516554 2.604673 9.738398 -8.192491 1.072862 21.54914 6.813951 3.170307 -24.21572 8.461847 2.591559 -16.4302 10.62082 91.37204 30.71628 -24.26071 -0 0 7.382404 -11.79753 8.44918 5.879425 6.462921 -23.65066 -3.849967 -88.00868 22.49958 14.95154 0 0 -24.82877 10.1342 13.54564 2.463031
2.138765 103.3666 37.58922 -2.402089 0.6401466 1.642555 8.376634 -26.60091 1.937838 -0 15.42975 -0 -10.80708 -0.8501489 -1.297029 -3.813771 13.54409 -10.70243 -0 35.6511 -0 -1.521956 -12.96107 12.13807 1.11653 -1.803441 2.453986 2.318595 9.964894 -8.038294 0.9907284 21.90241 6.690739 3.05701 -23.35418 8.167049 2.404448 -16.09206 10.70555 91.48236 29.96546 -23.79024 -0 0 7.343442 -12.50372 8.961565 5.969257 5.600252 -23.20028 -4.35363 -88.40733 22.29563 15.65611 0 0 -22.37591 9.495187 13.70551 3.017638
2.105465 104.7435 43.75375 -2.430297 -0.8345518 1.36612 8.20456 -21.30755 1.906857 -0 17.16422 -0 -11.62842 -3.139262 -1.86231 -3.235598 10.12748 -10.02652 -0 45.61679 -0 -2.672583 -9.281765 11.28248 1.598599 -1.575359 2.869361 2.037958 10.20962 -7.714056 1.007945 22.35205 6.43003 2.993831 -22.48541 7.809607 2.400995 -15.90155 10.87718 91.21749 29.67477 -22.89581 -0 0 7.626294 -13.02622 9.498473 6.046665 4.795164 -22.65025 -4.700382 -88.97702 22.1304 16.52435 0 0 -19.67348 9.056963 13.95664 3.3663
2.067928 106.5141 49.70886 -2.005286 -2.37804 0.8001343 7.561492 -15.61373 1.739143 -0 17.61669 -0 -12.27621 -5.515851 -2.348414 -2.972281 5.381606 -9.511719 -0 54.89 -0 -2.973075 -6.428884 11.22963 1.422192 -1.162391 3.713865 1.77728 10.5105 -7.231863 1.133077 22.8591 6.012237 3.014693 -21.66645 7.339258 2.503524 -15.91416 11.11853 90.6596 29.80859 -21.68119 -0 0 8.064276 -13.46341 9.943108 6.188737 4.197083 -22.2283 -4.872145 -89.57656 21.96809 17.35835 0 0 -17.29572 8.837397 14.23244 3.502665
1.997594 108.4371 55.29687 -1.251396 -3.856957 0.06382038 6.703197 -9.989306 1.503176 -0 16.62469 -0 -12.7624 -7.278469 -2.613177 -2.852949 -0.3625646 -8.963742 -0 61.43944 -0 -2.515915 -4.813502 12.0061 0.6879509 -0.6106008 4.780427 1.51362 10.89659 -6.619958 1.327637 23.32621 5.486659 3.107495 -20.93184 6.770014 2.597634 -16.24088 11.40686 89.83604 30.205 -20.10177 -0 0 8.728263 -13.99341 10.25353 6.517076 3.891773 -22.0226 -4.9066 -90.17528 21.68203 18.18979 0 0 -15.46801 8.801744 14.41079 3.453794
1.880607 110.2052 60.46834 -0.454569 -5.083681 -0.7041005 5.958613 -4.687648 1.278194 -0 14.53758 -0 -13.05709 -8.329758 -2.576525 -2.51153 -6.706529 -8.189373 -0 63.16729 -0 -1.576391 -4.34586 13.46207 -0.2523246 -0.008221845 5.77737 1.217519 11.32159 -5.932163 1.503417 23.62676 4.958999 3.200707 -20.32323 6.174996 2.565292 -17.01203 11.71192 88.70084 30.62516 -17.98856 -0 0 9.911827 -14.77549 10.44991 7.183881 3.873646 -21.93187 -4.853793 -90.84691 21.16339 19.25411 0 0 -14.0482 8.828521 14.37941 3.343326
1.741778 111.5135 65.29072 0.07168838 -5.819577 -1.416495 5.565745 0.232296 1.061189 -0 11.85612 -0 -13.11576 -9.241087 -2.261471 -1.588894 -13.1438 -7.053051 -0 58.80777 -0 -0.5094363 -4.548908 15.23285 -0.9867286 0.5200617 6.452268 0.9062785 11.64293 -5.263651 1.552134 23.67111 4.539785 3.19007 -19.89964 5.639905 2.328222 -18.27646 11.98166 87.22137 30.84827 -15.2504 -0 0 11.86966 -15.83203 10.53535 8.298123 4.050522 -21.76069 -4.724865 -91.65856 20.43327 20.76664 0 0 -12.74904 8.742343 14.10748 3.374585
1.637094 112.1485 69.92939 0.1416707 -5.88083 -2.064445 5.550455 4.810015 0.7938527 -0 9.029545 -0 -12.91591 -10.82485 -1.776785 0.0145185 -18.99758 -5.57942 -0 48.74849 -0 0.3845825 -4.840339 16.87281 -1.271721 0.8192061 6.702996 0.6585308 11.68328 -4.729749 1.406716 23.46514 4.295837 3.002454 -19.69813 5.231938 1.892048 -19.9028 12.13195 85.47506 30.78504 -12.06232 -0 0 14.53513 -17.00929 10.45816 9.823234 4.287202 -21.36024 -4.472211 -92.58025 19.63384 22.7053 0 0 -11.3288 8.439219 13.66246 3.676382
